<?xml version="1.0" encoding="UTF-8"?>
<svg version="1.1" xmlns="http://www.w3.org/2000/svg" width="3508" height="2480">
<path d="M0 0 C279.51 0 559.02 0 847 0 C847 369.6 847 739.2 847 1120 C567.49 1120 287.98 1120 0 1120 C0 750.4 0 380.8 0 0 Z M101 101 C101 403.94 101 706.88 101 1019 C313.85 1019 526.7 1019 746 1019 C746 716.06 746 413.12 746 101 C533.15 101 320.3 101 101 101 Z " fill="#79CE25" transform="translate(323,680)"/>
<path d="M0 0 C5.85720418 4.8668042 10.74752927 10.63161186 15.25 16.75 C16.10271484 15.77160156 16.10271484 15.77160156 16.97265625 14.7734375 C19.36465166 12.06597024 21.79294017 9.39851904 24.25 6.75 C24.7759375 6.1828125 25.301875 5.615625 25.84375 5.03125 C40.85663706 -9.3427908 62.69390013 -11.68056444 82.36328125 -11.46484375 C100.1257445 -11.00574011 116.62731123 -5.88453167 129.9375 6.1875 C130.700625 7.033125 131.46375 7.87875 132.25 8.75 C132.80300781 9.31074219 133.35601563 9.87148438 133.92578125 10.44921875 C156.76861986 34.56382139 150.60327333 80.52627307 150.68330884 111.1183908 C150.69148356 114.19708579 150.70166391 117.27576863 150.71232414 120.35445595 C150.74482965 130.01915117 150.76882693 139.68381543 150.781138 149.34855765 C150.79547913 160.45371461 150.83971858 171.55824555 150.90863949 182.66319484 C150.96037473 191.29900994 150.9853056 199.93464596 150.98996013 208.57061368 C150.99335226 213.70992966 151.00812766 218.84860356 151.05124092 223.98775291 C151.09095351 228.8022955 151.09741462 233.61574516 151.07834053 238.43040276 C151.07707447 240.19326866 151.08774737 241.9561905 151.11135483 243.71889877 C151.30020278 258.67236331 151.30020278 258.67236331 147.15989685 263.29588318 C143.53543718 266.03629055 140.42627682 266.63560495 135.86523438 266.65576172 C135.16344559 266.66802795 134.4616568 266.68029419 133.73860168 266.69293213 C131.43905242 266.72352257 129.14333143 266.70343509 126.84375 266.6796875 C125.23383874 266.68440902 123.62393236 266.69120776 122.01403809 266.69998169 C118.6480332 266.71027378 115.28333302 266.69539701 111.91748047 266.66259766 C107.61602688 266.62271003 103.31763032 266.64568946 99.01628876 266.6876049 C95.69424663 266.71297616 92.37292202 266.70481563 89.05085754 266.68671036 C87.46571993 266.6820615 85.88051584 266.68769844 84.29545593 266.70406723 C82.07348752 266.7219811 79.85637463 266.69459218 77.63476562 266.65576172 C75.74449646 266.64740799 75.74449646 266.64740799 73.81604004 266.6388855 C69.65808319 265.60245643 67.45895725 264.49702977 64.60582161 261.31305313 C61.50428651 255.44989297 62.31702939 248.30554844 62.39526367 241.83764648 C62.39064627 240.10564625 62.38292576 238.37365193 62.37234497 236.64167786 C62.35216977 231.94670896 62.37461865 227.25278843 62.40417647 222.55790591 C62.42731182 217.63165742 62.40923555 212.70556963 62.39509583 207.77931213 C62.37416875 198.43918709 62.3870699 189.09945001 62.41356784 179.75935084 C62.45963158 163.06305777 62.44382155 146.3667366 62.4225176 129.6704126 C62.41632359 123.81936447 62.42327228 117.96852395 62.44173563 112.11750305 C62.45181015 108.45996949 62.45396961 104.80245689 62.45456314 101.14491081 C62.45665288 99.46242969 62.46217085 97.77994834 62.4715786 96.09749222 C62.53534353 84.35571972 61.62324516 73.29140623 59.25 61.75 C55.60256851 60.62211595 52.11588933 60.54870936 48.3125 60.5 C47.10722656 60.47421875 45.90195313 60.4484375 44.66015625 60.421875 C40.12356763 60.85838524 37.48769064 62.28310739 34.5625 65.75 C29.05656655 78.33499074 30.10910138 93.86786926 30.15576172 107.30957031 C30.15764449 108.95498606 30.15898738 110.60040249 30.15983582 112.24581909 C30.16210573 115.76788214 30.16680756 119.28993064 30.17303085 122.81198883 C30.18148489 128.38483538 30.17597067 133.9576138 30.16702271 139.53045654 C30.1648162 140.94534453 30.1648162 140.94534453 30.16256511 142.38881612 C30.15949504 144.31624103 30.15637503 146.24366586 30.15320611 148.1710906 C30.13206168 161.13041513 30.11840883 174.0895123 30.15039062 187.04882812 C30.17191809 195.81309827 30.16878572 204.57697356 30.13698208 213.34121776 C30.12114425 217.97213955 30.11786816 222.60230533 30.14474106 227.23319244 C30.16977372 231.58391486 30.16222485 235.93336849 30.12986183 240.28403091 C30.12377678 241.87753199 30.12959187 243.47113101 30.14835548 245.06453323 C30.29649665 258.5798793 30.29649665 258.5798793 26.15713501 263.1960144 C22.52842096 266.02376712 19.48936748 266.63532613 14.86523438 266.65576172 C14.16344559 266.66802795 13.4616568 266.68029419 12.73860168 266.69293213 C10.43905242 266.72352257 8.14333143 266.70343509 5.84375 266.6796875 C4.23383874 266.68440902 2.62393236 266.69120776 1.01403809 266.69998169 C-2.3519668 266.71027378 -5.71666698 266.69539701 -9.08251953 266.66259766 C-13.38397312 266.62271003 -17.68236968 266.64568946 -21.98371124 266.6876049 C-25.30575337 266.71297616 -28.62707798 266.70481563 -31.94914246 266.68671036 C-33.53428007 266.6820615 -35.11948416 266.68769844 -36.70454407 266.70406723 C-38.92651248 266.7219811 -41.14362537 266.69459218 -43.36523438 266.65576172 C-45.25550354 266.64740799 -45.25550354 266.64740799 -47.18395996 266.6388855 C-51.33499956 265.60418066 -53.54473604 264.52503626 -56.39417839 261.34398842 C-59.53625589 255.33249503 -58.68232148 247.9493827 -58.60473633 241.33105469 C-58.60935337 239.54492676 -58.61707344 237.75880457 -58.62765503 235.97270203 C-58.64783096 231.13125651 -58.62538316 226.29082751 -58.59582353 221.44946575 C-58.5727006 216.37367089 -58.59076 211.29803254 -58.60490417 206.222229 C-58.62582979 196.60228948 -58.61292856 186.98272669 -58.58643216 177.36281228 C-58.54034156 160.15299826 -58.55614237 142.94315595 -58.5774824 125.73331189 C-58.58368964 119.69912113 -58.57669221 113.66513117 -58.55826437 107.63096666 C-58.54821933 103.86650665 -58.54603158 100.1020671 -58.54543686 96.33759499 C-58.5433399 94.60063961 -58.53779551 92.8636842 -58.5284214 91.12675285 C-57.86515637 76.02871313 -57.86515637 76.02871313 -62.4140625 62.09375 C-65.73186952 60.18517874 -68.31682251 60.21959539 -72.125 60.25 C-73.41148438 60.2396875 -74.69796875 60.229375 -76.0234375 60.21875 C-81.10076912 60.94256247 -84.30601893 62.94502367 -87.5 66.9375 C-92.66385936 78.55618357 -91.88641553 91.92446225 -91.84423828 104.35791016 C-91.84235658 106.03258718 -91.84101308 107.70726488 -91.84016418 109.38194275 C-91.83789015 112.97334031 -91.83318194 116.56472367 -91.82696915 120.15611649 C-91.81853052 125.8380185 -91.82401984 131.51985346 -91.83297729 137.20175171 C-91.8344483 138.16265201 -91.83591931 139.12355232 -91.83743489 140.11357081 C-91.84050515 142.07747276 -91.84362517 144.04137464 -91.84679389 146.00527644 C-91.86795083 159.22267012 -91.88161431 172.43984146 -91.84960938 185.65722656 C-91.8280824 194.58921476 -91.83121588 203.52081548 -91.86301792 212.45277822 C-91.87886056 217.17426872 -91.88212175 221.8950176 -91.85525894 226.61647415 C-91.83022708 231.05416365 -91.83777447 235.49060915 -91.87013817 239.92823982 C-91.87622419 241.55399034 -91.8704051 243.17983683 -91.85164452 244.80549049 C-91.70349329 258.59765035 -91.70349329 258.59765035 -95.83613586 263.21620178 C-99.49812924 266.05365622 -102.59034596 266.63062099 -107.24243164 266.63989258 C-108.31215462 266.65588249 -108.31215462 266.65588249 -109.40348816 266.67219543 C-111.74033704 266.69772618 -114.07338608 266.67275119 -116.41015625 266.64453125 C-118.04488049 266.64670964 -119.67960313 266.65111467 -121.3143158 266.65763855 C-124.73160624 266.6634302 -128.14760816 266.64455472 -131.56469727 266.60766602 C-135.93550854 266.5621484 -140.30382764 266.57479003 -144.6746912 266.60547352 C-148.04727728 266.62330414 -151.41928358 266.61201027 -154.79183769 266.59183311 C-156.40290622 266.58533675 -158.01403368 266.58740255 -159.6250782 266.59833717 C-161.88038435 266.60892133 -164.13202754 266.58065414 -166.38696289 266.54223633 C-167.66712784 266.53444656 -168.94729279 266.5266568 -170.26625061 266.51863098 C-174.74663822 265.53010846 -177.29397665 263.54276496 -179.75 259.75 C-180.61561561 256.24413708 -180.56499763 252.84030132 -180.51863098 249.24293518 C-180.53372925 247.65619371 -180.53372925 247.65619371 -180.54913253 246.03739685 C-180.5754075 242.49261987 -180.55878972 238.94935765 -180.54223633 235.40454102 C-180.55200349 232.86331122 -180.56430864 230.32209009 -180.57896423 227.78088379 C-180.60732927 221.59487013 -180.60745434 215.40941671 -180.59351341 209.22337026 C-180.58269176 204.19492967 -180.58322447 199.16661036 -180.59183311 194.13816643 C-180.59304124 193.42218187 -180.59424936 192.7061973 -180.59549409 191.96851624 C-180.59798477 190.51394253 -180.60049576 189.05936885 -180.60302683 187.60479521 C-180.62530403 173.96771492 -180.61003646 160.33087065 -180.58244052 146.69381302 C-180.55972526 134.99745773 -180.5713978 123.30154003 -180.60766602 111.60522461 C-180.64979272 98.01812511 -180.66890379 84.4312969 -180.65264148 70.84413284 C-180.65098185 69.39463838 -180.6493585 67.94514388 -180.64777184 66.49564934 C-180.64698689 65.78249969 -180.64620195 65.06935004 -180.64539323 64.3345898 C-180.64150482 59.31380063 -180.65421169 54.29321131 -180.67350197 49.27246284 C-180.69906614 42.51128647 -180.68770341 35.75113916 -180.65151405 28.98996735 C-180.64385304 26.50795937 -180.64813188 24.02588171 -180.66518784 21.54392052 C-180.68654799 18.15627344 -180.66481781 14.77154339 -180.63215637 11.38404846 C-180.64845354 10.40077546 -180.66475072 9.41750246 -180.68154174 8.40443331 C-180.58260584 3.28621533 -180.01141726 0.41011205 -176.40825176 -3.35907269 C-172.97930265 -6.45374645 -170.41309398 -7.13384015 -165.73242188 -7.15576172 C-165.06964737 -7.16802795 -164.40687286 -7.18029419 -163.72401428 -7.19293213 C-161.55424938 -7.22350038 -159.3885483 -7.20344553 -157.21875 -7.1796875 C-155.6985193 -7.18440972 -154.17829378 -7.19120904 -152.65808105 -7.19998169 C-149.48036099 -7.21027068 -146.30402342 -7.19540808 -143.12646484 -7.16259766 C-139.06708492 -7.12270903 -135.01094427 -7.14569031 -130.95168304 -7.1876049 C-127.81491999 -7.2129853 -124.67891632 -7.20481173 -121.54212952 -7.18671036 C-120.04630645 -7.18206396 -118.55041286 -7.18768974 -117.05467224 -7.20406723 C-103.95508759 -7.316047 -103.95508759 -7.316047 -99.33789062 -2.96923828 C-96.21473399 0.72479828 -95.83337795 3.9974568 -95.75 8.75 C-95.11835937 8.18152344 -94.48671875 7.61304688 -93.8359375 7.02734375 C-69.48149617 -13.99327636 -27.14214301 -20.00922488 0 0 Z " fill="#79CE25" transform="translate(2037.75,982.25)"/>
<path d="M0 0 C27.06452324 28.30147585 39.86924305 73.3240422 39.375 111.875 C39.36597656 112.80570313 39.35695313 113.73640625 39.34765625 114.6953125 C39.33025391 115.71238281 39.33025391 115.71238281 39.3125 116.75 C36.04777018 117.83824327 33.27397214 118.07059082 29.84082031 118.32250977 C29.18838348 118.37142365 28.53594666 118.42033752 27.86373901 118.47073364 C25.70629784 118.63145008 23.54849413 118.7865501 21.390625 118.94140625 C19.88708583 119.05181335 18.38356638 119.16248926 16.88006592 119.27342224 C13.72620604 119.50527826 10.57216693 119.7344636 7.41796875 119.96166992 C3.38840806 120.25205948 -0.64071195 120.54810259 -4.6697197 120.84605503 C-7.77693577 121.07536141 -10.88433524 121.3020973 -13.9917984 121.52802849 C-15.4765034 121.63619326 -16.96115918 121.74503602 -18.44576263 121.85458565 C-20.52974838 122.00788122 -22.6139499 122.15782258 -24.69824219 122.30688477 C-25.88166199 122.39269302 -27.06508179 122.47850128 -28.28436279 122.56690979 C-39.25259929 123.15700552 -39.25259929 123.15700552 -42.51953125 120.5546875 C-47.28594708 116.00522944 -47.00711621 110.11148587 -47.375 103.875 C-47.58485363 101.43553271 -47.80227236 98.9967041 -48.02734375 96.55859375 C-48.13288574 95.38409668 -48.23842773 94.20959961 -48.34716797 92.99951172 C-49.87542033 78.40766172 -55.13643894 61.5486565 -66.6875 51.75 C-75.17692278 46.30847149 -83.83328581 46.03752626 -93.6875 46.75 C-104.61631818 49.27314404 -110.96303036 56.16386183 -116.83203125 65.34765625 C-124.34993671 79.13312079 -126.78364789 95.71913067 -128.3515625 111.1484375 C-128.54076767 113.00872086 -128.54076767 113.00872086 -128.73379517 114.90658569 C-130.02600147 128.7235192 -130.13942759 142.50470202 -130.06835938 156.37188721 C-130.06053572 159.04651926 -130.07517143 161.72085551 -130.08893585 164.39544868 C-130.55700354 208.94328511 -130.55700354 208.94328511 -114.6875 249.75 C-113.6886409 250.7511396 -112.6890163 251.7515186 -111.6875 252.75 C-111.6875 253.41 -111.6875 254.07 -111.6875 254.75 C-111.130625 255.02714844 -110.57375 255.30429688 -110 255.58984375 C-108.41249827 256.38627621 -106.8293596 257.19144722 -105.25 258.00390625 C-103.9815625 258.65166016 -103.9815625 258.65166016 -102.6875 259.3125 C-101.841875 259.74691406 -100.99625 260.18132812 -100.125 260.62890625 C-92.34960492 264.20508956 -82.28791632 264.08539972 -74.3125 261.1875 C-62.31254684 255.51158107 -56.45633464 245.11905641 -52 233 C-48.00808178 220.29963971 -46.5586757 206.89287838 -44.6875 193.75 C-29.5813053 194.35182751 -14.49128548 195.12085686 0.59814453 196.05224609 C3.86600149 196.25329152 7.13415082 196.44903151 10.40234375 196.64453125 C12.50783178 196.77312226 14.61330129 196.90201678 16.71875 197.03125 C17.68228394 197.088573 18.64581787 197.145896 19.6385498 197.20495605 C34.70649464 198.14867007 34.70649464 198.14867007 37.8125 201.3125 C41.45702341 206.13613393 40.66320394 211.41200117 39.984375 217.12109375 C39.76774121 218.6651079 39.54348675 220.20806776 39.3125 221.75 C39.19583984 222.55840332 39.07917969 223.36680664 38.95898438 224.19970703 C33.54234435 260.08147497 16.94735572 296.08547631 -12.69506836 318.28515625 C-31.81254999 332.054952 -54.69059291 340.80390925 -78.4296875 340.953125 C-79.15632599 340.95882507 -79.88296448 340.96452515 -80.63162231 340.97039795 C-82.1661842 340.97979519 -83.70076579 340.98636079 -85.23535156 340.99023438 C-87.52187059 340.9998295 -89.80744544 341.03085565 -92.09375 341.0625 C-108.36626952 341.17996892 -123.34855636 338.14853232 -138.6875 332.75 C-139.73550781 332.38132812 -140.78351563 332.01265625 -141.86328125 331.6328125 C-154.5460211 326.76129653 -165.56239861 318.69248955 -175.6875 309.75 C-176.35910156 309.1621875 -177.03070312 308.574375 -177.72265625 307.96875 C-214.10600967 273.90138006 -224.80287607 218.3302105 -226.6875 170.75 C-228.28941219 114.46138021 -222.35605351 49.23505969 -181.921875 6.08203125 C-180.81585937 4.92767578 -180.81585937 4.92767578 -179.6875 3.75 C-178.99140625 2.99074219 -178.2953125 2.23148438 -177.578125 1.44921875 C-156.81641836 -20.48696399 -125.50979795 -30.67681544 -95.95703125 -32.1875 C-59.7522298 -33.03213206 -26.85715728 -25.35202763 0 0 Z " fill="#79CE25" transform="translate(1526.6875,912.25)"/>
<path d="M0 0 C1.0630687 -0.01258347 2.12613739 -0.02516693 3.22142029 -0.03813171 C4.9488295 -0.01284393 4.9488295 -0.01284393 6.71113586 0.01295471 C8.54934151 0.00441216 8.54934151 0.00441216 10.42468262 -0.00430298 C13.78223375 -0.01350599 17.13756218 0.00410044 20.49484992 0.03455615 C24.03761719 0.06107705 27.58035313 0.05562103 31.12319946 0.05447388 C37.09444446 0.05728401 43.06523254 0.0832919 49.03633118 0.12428284 C55.86611765 0.17100629 62.6953991 0.18729266 69.52533406 0.18507618 C76.86734173 0.18301779 84.20916319 0.20406576 91.55111337 0.23141599 C93.62677216 0.23770281 95.70239928 0.23992486 97.77806664 0.24113274 C134.56224421 0.28252788 173.11243684 1.37365388 201.52485657 27.74171448 C221.56029542 49.06021099 232.54656835 77.73976299 232.72798157 106.94874573 C232.73499588 107.70768127 232.74201019 108.46661682 232.74923706 109.24855042 C232.76664305 111.68383278 232.77308885 114.1188722 232.77485657 116.55421448 C232.77553131 117.3849649 232.77620605 118.21571533 232.77690125 119.07164001 C232.76126048 131.17218244 232.52215846 142.95016362 229.52485657 154.74171448 C229.3585675 155.41283264 229.19227844 156.08395081 229.02095032 156.77540588 C224.91914158 172.70789445 217.99878273 187.05097676 207.52485657 199.74171448 C206.34923157 201.31952698 206.34923157 201.31952698 205.14985657 202.92921448 C191.34531386 217.71979595 173.75284452 225.66871686 154.27485657 229.92921448 C153.5740094 230.08422424 152.87316223 230.23923401 152.15107727 230.39894104 C135.47835907 233.78925122 118.8436762 234.00432135 101.89985657 233.86671448 C99.71756906 233.85665337 97.535277 233.84753311 95.35298157 233.83937073 C90.0768384 233.81763126 84.80086971 233.7844074 79.52485657 233.74171448 C79.53130912 234.36401727 79.53776167 234.98632006 79.54440975 235.62748051 C79.69914676 250.78470692 79.81490667 265.94169027 79.88754177 281.09950352 C79.92360343 288.42982957 79.97274805 295.75962771 80.05293274 303.08961487 C80.12280657 309.48010507 80.1678882 315.87021288 80.18347603 322.26107448 C80.19258528 325.64376517 80.21391834 329.02536216 80.26496696 332.40770149 C80.31578926 336.18839982 80.32277948 339.96683301 80.3195343 343.74781799 C80.3572847 345.42125275 80.3572847 345.42125275 80.39579773 347.12849426 C80.34696483 352.38673228 80.05281197 355.91774783 76.46641541 359.93571472 C72.78781395 363.00951769 69.39073502 363.73866847 64.66523743 363.63160706 C63.53699303 363.64759697 63.53699303 363.64759697 62.38595581 363.66390991 C59.91931451 363.68945694 57.45626756 363.6644549 54.98970032 363.63624573 C53.26529532 363.63842385 51.54089183 363.64282835 49.8164978 363.64935303 C46.21091969 363.65514623 42.60656234 363.63625839 39.00117493 363.59938049 C34.38826965 363.55386544 29.77772587 363.56650308 25.16477108 363.597188 C21.60690295 363.61501396 18.04958469 363.60372791 14.4917469 363.58354759 C12.79136299 363.57704861 11.09092326 363.57912145 9.39056206 363.59005165 C7.01079208 363.6006287 4.6344992 363.57238182 2.25508118 363.53395081 C1.20989822 363.54981232 1.20989822 363.54981232 0.14360046 363.56599426 C-3.59861009 363.46098421 -5.55818114 362.68491259 -8.65474987 360.56670666 C-13.26828997 355.657823 -12.30268149 349.09867459 -12.23704529 342.77320862 C-12.24396074 341.32861193 -12.25349144 339.88402579 -12.26540875 338.43946171 C-12.29045876 334.473763 -12.27807608 330.50893046 -12.25949144 326.54322863 C-12.24592271 322.26500101 -12.26686668 317.98692294 -12.28337097 313.70872498 C-12.3100635 305.32933334 -12.30428249 296.95026399 -12.28689513 288.57085967 C-12.27334975 281.76133944 -12.27150496 274.95190959 -12.27803802 268.14237976 C-12.27895742 267.1735486 -12.27987682 266.20471745 -12.28082408 265.20652777 C-12.28274241 263.23842133 -12.28468769 261.27031493 -12.28665963 259.30220854 C-12.30377263 240.84331027 -12.28409112 222.38459073 -12.25185743 203.92572176 C-12.22505049 188.08402305 -12.22970653 172.24258812 -12.25737 156.40089417 C-12.28947257 138.00847116 -12.30212463 119.61620485 -12.28369641 101.22375774 C-12.2817851 99.26285492 -12.27989888 97.30195207 -12.27803802 95.34104919 C-12.27711237 94.3762248 -12.27618672 93.41140041 -12.27523302 92.41733891 C-12.27005049 85.61527979 -12.27880102 78.81331998 -12.29291534 72.01127625 C-12.30973583 63.72279635 -12.30520575 55.43465742 -12.27323088 47.14621663 C-12.25745184 42.91648418 -12.25130384 38.68732037 -12.27112579 34.45759201 C-12.28899496 30.58603418 -12.27919911 26.71557244 -12.24726048 22.84411418 C-12.24055381 21.44313036 -12.24397852 20.04205408 -12.25851521 18.64112961 C-12.37123512 6.87639477 -12.37123512 6.87639477 -8.76972103 2.91504002 C-5.42449549 0.70830368 -3.93543237 -0.00700569 0 0 Z M79.52485657 71.74171448 C79.52485657 100.78171448 79.52485657 129.82171448 79.52485657 159.74171448 C104.77740163 160.98620593 104.77740163 160.98620593 127.27485657 151.61671448 C137.20014168 138.93440573 138.83831106 122.35475543 137.52485657 106.74171448 C135.85103784 94.61259329 132.48023004 85.26408088 123.52485657 76.74171448 C111.32521026 68.60861694 92.31042696 71.74171448 79.52485657 71.74171448 Z " fill="#79CE25" transform="translate(1324.4751434326172,1304.258285522461)"/>
<path d="M0 0 C1.48353284 1.2413234 2.93978289 2.51561707 4.375 3.8125 C5.79232422 5.09060547 5.79232422 5.09060547 7.23828125 6.39453125 C32.8241469 30.30008216 41.65948579 65.84203762 43.375 99.8125 C43.59013496 106.66516425 43.62062689 113.51944247 43.625 120.375 C43.62567474 121.32725464 43.62634949 122.27950928 43.62704468 123.26062012 C43.58014736 165.05796548 38.14905343 210.77392812 7.5625 242.0625 C-6.82204522 256.30215839 -26.46971381 264.07783822 -46.625 264.8125 C-47.34558594 264.85246094 -48.06617187 264.89242188 -48.80859375 264.93359375 C-58.93520231 265.24946961 -68.66568495 263.4580103 -78.125 259.9375 C-78.78314697 259.69306152 -79.44129395 259.44862305 -80.11938477 259.19677734 C-84.35037055 257.53377463 -87.88562624 255.36966851 -91.625 252.8125 C-91.62420441 253.91417511 -91.62340881 255.01585022 -91.62258911 256.15090942 C-91.61898506 266.53885869 -91.64679619 276.92631338 -91.7052784 287.31410408 C-91.73433702 292.6545081 -91.75236871 297.99447298 -91.74511719 303.33496094 C-91.73852455 308.4900024 -91.76100564 313.64417604 -91.80355453 318.79903793 C-91.81468687 320.7645547 -91.81538477 322.73015947 -91.80542374 324.69568253 C-91.79324716 327.45188991 -91.81833712 330.20545002 -91.85205078 332.96142578 C-91.83371941 334.17739189 -91.83371941 334.17739189 -91.8150177 335.41792297 C-91.90638766 339.56966453 -92.41938836 342.15476668 -95.21786499 345.31716919 C-98.6147117 348.23892365 -101.4211001 348.57192565 -105.91210938 348.58886719 C-106.96698296 348.60463806 -106.96698296 348.60463806 -108.04316711 348.62072754 C-110.35261632 348.64699508 -112.65927609 348.62970856 -114.96875 348.609375 C-116.58248419 348.61342054 -118.1962148 348.61924681 -119.80993652 348.62677002 C-123.18598367 348.63559838 -126.56107593 348.62281712 -129.93701172 348.59472656 C-134.25512444 348.560539 -138.57099976 348.58023179 -142.88903046 348.61616135 C-146.21955084 348.63788895 -149.54954454 348.63092164 -152.88008118 348.61539459 C-154.47162646 348.61140468 -156.06322026 348.61625979 -157.65470886 348.63027191 C-159.88371576 348.64559223 -162.10914873 348.62218796 -164.33789062 348.58886719 C-165.60330688 348.58409363 -166.86872314 348.57932007 -168.17248535 348.57440186 C-171.80900694 347.7718933 -173.803068 346.68090491 -176.35990143 343.96908784 C-179.17119072 339.17674008 -178.44340368 333.35561596 -178.38690186 327.95788574 C-178.39381741 326.52566333 -178.40334819 325.09345156 -178.41526532 323.66126204 C-178.44031389 319.72976552 -178.42793333 315.79914278 -178.40934801 311.86764312 C-178.39577868 307.62622516 -178.41672355 303.384958 -178.43322754 299.14356995 C-178.45991943 290.83636781 -178.45413935 282.52949077 -178.43675169 274.22227585 C-178.42320607 267.47139384 -178.42136163 260.720603 -178.42789459 253.9697113 C-178.42881399 253.00920623 -178.42973339 252.04870116 -178.43068065 251.05908987 C-178.43259898 249.10789443 -178.43454426 247.15669902 -178.4365162 245.20550364 C-178.45362901 226.90541014 -178.43394798 208.60549691 -178.401714 190.30543298 C-178.37490707 174.60017883 -178.37956312 158.89519075 -178.40722656 143.18994141 C-178.43932947 124.95573116 -178.45198102 106.72167896 -178.43355298 88.4874444 C-178.43164167 86.54339252 -178.42975544 84.59934062 -178.42789459 82.6552887 C-178.42696894 81.69875663 -178.42604329 80.74222457 -178.42508958 79.75670668 C-178.41990716 73.01325723 -178.42865737 66.26990794 -178.44277191 59.526474 C-178.45959277 51.30935872 -178.45506155 43.09258736 -178.42308745 34.87551153 C-178.40730889 30.68223221 -178.40115955 26.48952648 -178.42098236 22.2962513 C-178.43885258 18.45799765 -178.42905401 14.62084953 -178.39711705 10.78269631 C-178.39041082 9.39382555 -178.39383412 8.00486152 -178.40837178 6.61605066 C-178.52115087 -5.05238298 -178.52115087 -5.05238298 -174.78087902 -9.00537395 C-171.12592117 -11.53258703 -169.22422331 -11.95045455 -164.81274414 -11.97973633 C-163.83343178 -11.99791664 -163.83343178 -11.99791664 -162.83433533 -12.01646423 C-160.69199245 -12.04778089 -158.55263104 -12.03540289 -156.41015625 -12.01953125 C-154.91091636 -12.02612042 -153.41168284 -12.03434078 -151.91246033 -12.04411316 C-148.77599195 -12.05744208 -145.64054774 -12.04866879 -142.50415039 -12.0246582 C-138.49747898 -11.99608923 -134.49375162 -12.02612115 -130.48734379 -12.07329273 C-127.39265352 -12.1025779 -124.29865922 -12.09872725 -121.20388603 -12.08527184 C-119.72758119 -12.08312769 -118.25121971 -12.0915418 -116.77504158 -12.11100197 C-103.83432037 -12.25273792 -103.83432037 -12.25273792 -99.22216797 -7.83837891 C-96.54759135 -4.61631046 -95.73511305 -1.98756182 -95.6875 2.25 C-95.65785156 3.30058594 -95.62820312 4.35117187 -95.59765625 5.43359375 C-95.60667969 6.21863281 -95.61570312 7.00367188 -95.625 7.8125 C-95.07972656 7.0803125 -94.53445312 6.348125 -93.97265625 5.59375 C-87.35219704 -2.24945626 -78.19265688 -7.70711126 -68.625 -11.1875 C-67.77292969 -11.50589844 -66.92085937 -11.82429687 -66.04296875 -12.15234375 C-43.96411583 -19.00657992 -18.36204903 -13.51605045 0 0 Z M-84.4375 54.375 C-94.13417968 67.85004107 -92.93536721 87.35492089 -92.890625 103.20703125 C-92.89197818 104.93226679 -92.89392407 106.65750195 -92.89642334 108.38273621 C-92.89934637 111.97370078 -92.89517067 115.56456484 -92.88574219 119.15551758 C-92.87437552 123.70005506 -92.88090772 128.24435543 -92.89288712 132.78888416 C-92.9002051 136.34536948 -92.89777248 139.90180102 -92.89263153 143.45828819 C-92.89132094 145.13119219 -92.89284885 146.80410149 -92.89759064 148.47699928 C-92.91719323 157.33479789 -92.65443218 166.10442085 -91.79589844 174.92456055 C-91.692302 176.0620372 -91.692302 176.0620372 -91.5866127 177.22249317 C-90.84693069 184.03711337 -89.64882857 190.60040831 -84.9375 195.75 C-78.52703337 199.74142262 -72.69338769 200.36374789 -65.30859375 199.47265625 C-60.10706115 198.19309437 -56.55360387 195.36227997 -53.3515625 191.12890625 C-43.03418455 173.0928884 -45.28614231 145.41493948 -45.36425781 125.44140625 C-45.37501782 122.18210364 -45.36425975 118.92334909 -45.3515625 115.6640625 C-44.28993348 81.95847521 -44.28993348 81.95847521 -56.625 51.8125 C-60.75105079 48.05051252 -64.73331241 47.45578145 -70.1484375 47.53515625 C-75.86774247 48.17564624 -80.22641075 50.53822979 -84.4375 54.375 Z " fill="#79CE25" transform="translate(2413.625,987.1875)"/>
<path d="M0 0 C0.74056641 0.19867676 1.48113281 0.39735352 2.24414062 0.60205078 C18.82933646 5.23410861 31.87876146 12.75543491 44 25 C44.763125 25.74121094 45.52625 26.48242188 46.3125 27.24609375 C68.24142258 49.88106118 64.298643 90.2611621 64.33885384 119.26525736 C64.34719239 123.40383309 64.3681281 127.54234436 64.38806152 131.68087769 C64.44064143 143.04948853 64.47442021 154.41813896 64.50782013 165.78681946 C64.53869599 176.23124577 64.57378716 186.67561535 64.62413073 197.1199683 C64.64342248 201.21600549 64.65880505 205.31197389 64.66447449 209.40805435 C64.05405251 235.75410257 64.05405251 235.75410257 67.68313599 261.68182373 C68.2484627 265.81775244 66.61258058 268.4776854 64.40447998 271.88299561 C59.23914049 276.43077578 51.72287634 275.19200187 45.2265625 274.9765625 C43.5760833 274.95789688 41.92554845 274.94366902 40.2749939 274.9336853 C35.94323095 274.89561133 31.61485412 274.7974927 27.28442383 274.68664551 C22.86065485 274.58410244 18.43633517 274.53862516 14.01171875 274.48828125 C5.3395966 274.38122691 -3.32977984 274.21070432 -12 274 C-12.64881448 271.45906145 -13.29412899 268.91731727 -13.9375 266.375 C-14.11990234 265.66214844 -14.30230469 264.94929688 -14.49023438 264.21484375 C-15.51316799 260.16030687 -16.37957367 256.14052941 -17 252 C-17.928125 253.2375 -17.928125 253.2375 -18.875 254.5 C-30.69891009 268.49162694 -48.34592773 275.88514451 -66 279 C-90.19110141 280.54225717 -112.72766123 278.43300685 -131.765625 262.0703125 C-132.50296875 261.38710937 -133.2403125 260.70390625 -134 260 C-134.69609375 259.35804688 -135.3921875 258.71609375 -136.109375 258.0546875 C-151.27199185 242.59822149 -155.25794599 220.15445157 -155.2487793 199.35522461 C-154.94559434 174.16033637 -146.61879687 151.07986836 -128.8828125 132.8203125 C-103.41025979 108.84065665 -57.17477851 99.0359724 -23 100 C-22.80515435 79.58928747 -22.80515435 79.58928747 -31 62 C-36.67853905 59.50144282 -42.04484477 59.66896365 -48 61 C-53.54886428 63.61738881 -56.50719987 67.52648513 -59 73 C-60.67235107 78.22522969 -61.91766058 83.32576518 -62.1875 88.8125 C-63.45157786 93.77157467 -66.69244373 96.38299341 -71 99 C-74.42638574 99.67440328 -77.50615936 99.20571107 -80.9375 98.6875 C-83.03628829 98.43996026 -85.13526304 98.19399866 -87.234375 97.94921875 C-89.02584961 97.72177979 -89.02584961 97.72177979 -90.85351562 97.48974609 C-95.73084569 96.89185756 -100.62192971 96.45920941 -105.515625 96.01953125 C-107.37379743 95.85021511 -109.23195164 95.68069901 -111.09008789 95.51098633 C-113.88256096 95.25597526 -116.67504153 95.00112642 -119.46774292 94.74862671 C-122.1082085 94.50690954 -124.74748756 94.2548008 -127.38671875 94 C-128.18164734 93.92912674 -128.97657593 93.85825348 -129.79559326 93.78523254 C-135.5666032 93.21495287 -139.39388636 92.32678953 -143.875 88.625 C-146.8224501 84.74481252 -146.32537156 81.11399967 -145.69921875 76.4609375 C-142.32507698 59.75987825 -135.62291929 43.6364206 -124 31 C-123.27425781 30.18273437 -122.54851563 29.36546875 -121.80078125 28.5234375 C-108.01720015 13.80576247 -89.39517991 4.82089627 -70 0 C-68.21142578 -0.44859375 -68.21142578 -0.44859375 -66.38671875 -0.90625 C-45.97066501 -5.38880663 -20.21056024 -5.46510047 0 0 Z M-59.0625 166.8125 C-62.24965191 170.86817019 -63.82647434 175.014863 -65 180 C-65.226875 180.928125 -65.45375 181.85625 -65.6875 182.8125 C-66.70210733 193.16149479 -66.70413362 204.02559094 -61.0625 213.125 C-56.89485883 216.9137647 -53.17994853 217.56756874 -47.66015625 217.4375 C-41.32832113 216.39614092 -36.66100827 212.14245367 -32.6875 207.3125 C-22.18345509 191.81758293 -22.48882927 170.96670467 -23 153 C-35.01326135 152.40731538 -50.78021419 158.11523536 -59.0625 166.8125 Z " fill="#79CE25" transform="translate(2645,974)"/>
<path d="M0 0 C1.39992188 1.18335938 1.39992188 1.18335938 2.828125 2.390625 C3.82585937 3.23367188 3.82585937 3.23367188 4.84375 4.09375 C30.16466064 27.52150844 38.06320409 66.49783456 39.828125 99.390625 C40.03777371 105.41001779 40.07371637 111.4305664 40.078125 117.453125 C40.07879974 118.2863327 40.07947449 119.11954041 40.08016968 119.97799683 C40.02761463 161.09912611 33.1715728 202.68405 4.078125 233.640625 C-19.76246863 256.6231065 -51.36261965 260.18877483 -82.88339233 259.62762451 C-91.93555868 259.39017831 -100.50680675 258.01834244 -109.171875 255.390625 C-110.24042725 255.06916504 -110.24042725 255.06916504 -111.33056641 254.74121094 C-135.81027086 247.07421437 -155.154008 230.12413863 -167.09277344 207.56298828 C-190.03365903 161.38018286 -190.40910108 95.98420323 -174.70703125 47.61328125 C-165.59068533 21.53399824 -149.81403035 0.84477253 -125.30078125 -12.12890625 C-86.76745154 -30.64056392 -33.43974554 -27.3644882 0 0 Z M-84.796875 47.890625 C-104.22286533 73.85420824 -96.34102337 134.5298111 -92.859375 164.515625 C-92.75399414 165.45704346 -92.64861328 166.39846191 -92.54003906 167.3684082 C-91.32479284 176.63341212 -89.00860978 185.72480859 -82.171875 192.390625 C-77.28923601 195.47159153 -71.73549036 194.99471728 -66.171875 194.390625 C-60.76607095 191.78425519 -57.19046909 187.96706888 -54.9765625 182.3671875 C-49.21217711 161.58633597 -48.96291378 140.36925188 -48.984375 118.953125 C-48.98464691 117.93549072 -48.98491882 116.91785645 -48.98519897 115.86938477 C-47.83730042 80.23670078 -47.83730042 80.23670078 -59.171875 47.390625 C-62.99971017 43.65392876 -66.17225313 42.25072079 -71.484375 42.140625 C-77.2563027 42.23417326 -80.60081873 43.89438093 -84.796875 47.890625 Z " fill="#79CE25" transform="translate(1777.171875,993.609375)"/>
<path d="M0 0 C1.57336473 1.34152787 3.13595927 2.69579046 4.6875 4.0625 C5.51765625 4.74957031 6.3478125 5.43664062 7.203125 6.14453125 C34.6881483 29.54052501 41.98990627 66.87922997 44.86279297 101.15380859 C45.1928869 105.38234118 45.42636624 109.60811312 45.59082031 113.84619141 C45.65774932 115.38048831 45.74156474 116.9141069 45.83886719 118.44677734 C45.99050898 120.86000669 46.09345404 123.27141453 46.1875 125.6875 C46.24244629 126.42154053 46.29739258 127.15558105 46.35400391 127.91186523 C46.4566096 132.08945142 45.72676802 134.60529473 42.92662048 137.76429749 C37.93510095 142.47748767 32.69579579 141.99792566 26.14282227 141.85717773 C24.89334305 141.85819992 23.64386383 141.85922211 22.35652161 141.86027527 C18.94677564 141.85624663 15.54003319 141.82126522 12.13081861 141.77225757 C8.56215175 141.72835828 4.99344049 141.72437555 1.42454529 141.71607971 C-5.32588785 141.69436343 -12.07552298 141.63697688 -18.82560545 141.56663328 C-26.51353745 141.48826346 -34.20150851 141.44987184 -41.88974082 141.41476524 C-57.69778863 141.34168937 -73.50504122 141.2186459 -89.3125 141.0625 C-89.02823742 145.36921055 -88.73014034 149.67485981 -88.4296875 153.98046875 C-88.31016724 155.79508606 -88.31016724 155.79508606 -88.18823242 157.6463623 C-87.03609958 176.30611561 -87.03609958 176.30611561 -77.49609375 191.70703125 C-76.63177734 192.28517578 -76.63177734 192.28517578 -75.75 192.875 C-75.17121094 193.27332031 -74.59242188 193.67164063 -73.99609375 194.08203125 C-67.95807843 197.59836964 -59.14162463 197.01569603 -52.56640625 195.37890625 C-45.50253437 192.50809154 -41.42944511 187.30053785 -38.22265625 180.5234375 C-35.11098417 172.10990356 -33.90818222 162.97719258 -33.3125 154.0625 C-29.42624683 153.11560238 -26.04234802 153.03853714 -22.05688477 153.28442383 C-20.8153212 153.35812698 -19.57375763 153.43183014 -18.29457092 153.50776672 C-16.9476582 153.59464259 -15.60077049 153.68190696 -14.25390625 153.76953125 C-12.86297175 153.85618961 -11.47201572 153.94250318 -10.08103943 154.02848816 C-7.16986057 154.21002728 -4.25904433 154.39644473 -1.34838867 154.58618164 C2.37090542 154.828139 6.090875 155.05688487 9.81123257 155.28181934 C12.68302157 155.4571105 15.55428965 155.63999615 18.42546272 155.82507896 C19.79635301 155.91243982 21.16740214 155.99734562 22.53860283 156.07969093 C24.46038631 156.19613773 26.38146461 156.32404858 28.30249023 156.45239258 C29.93866554 156.55684441 29.93866554 156.55684441 31.6078949 156.66340637 C36.16014684 157.25334394 40.66046549 158.15026714 43.75 161.75 C46.19819199 165.58813325 45.67195978 168.49640921 44.875 172.875 C44.23129962 175.63114508 43.4791867 178.34549072 42.6875 181.0625 C42.48157227 181.78469727 42.27564453 182.50689453 42.06347656 183.25097656 C34.45257725 209.33404351 20.18136524 234.67870301 -4.12109375 248.39453125 C-5.17425781 248.94496094 -6.22742187 249.49539063 -7.3125 250.0625 C-8.31410156 250.60261719 -9.31570312 251.14273437 -10.34765625 251.69921875 C-37.76888005 265.46183044 -75.04132149 266.36932808 -103.95825195 257.01098633 C-132.25949052 247.34994585 -150.85718704 227.16376396 -164.01953125 200.953125 C-184.90697276 157.5840425 -183.3834375 98.15196733 -168 53.4375 C-157.8494372 25.45898889 -138.57128512 2.00277565 -111.45117188 -10.81738281 C-76.745081 -26.50569396 -30.49655124 -23.92073237 0 0 Z M-78.55859375 49.0859375 C-87.00000992 58.59898111 -87.4544334 72.04956765 -88.3125 84.0625 C-71.4825 84.0625 -54.6525 84.0625 -37.3125 84.0625 C-37.3125 70.41532847 -37.65296007 59.05101155 -46.3125 48.0625 C-56.07373622 39.5744685 -69.40915652 40.3841244 -78.55859375 49.0859375 Z " fill="#79CE25" transform="translate(3101.3125,990.9375)"/>
<path d="M0 0 C1.8537095 0.0149266 3.70745063 0.02631165 5.561203 0.03430176 C10.43317266 0.06480342 15.3032249 0.14334794 20.17443848 0.23193359 C25.14792948 0.31386853 30.12173131 0.35032947 35.09570312 0.390625 C44.84979941 0.47634527 54.60247446 0.61282742 64.35546875 0.78125 C73.00683027 18.00117861 73.00683027 18.00117861 76.41796875 25.34375 C76.90040039 26.37520142 76.90040039 26.37520142 77.39257812 27.42749023 C78.38220377 29.54448541 79.36891677 31.66282103 80.35546875 33.78125 C81.04146991 35.25009191 81.72766717 36.71884225 82.4140625 38.1875 C84.06344438 41.71770601 85.7102236 45.24911431 87.35546875 48.78125 C90.18132563 45.41527936 92.41363246 42.09050261 94.45703125 38.203125 C95.03066406 37.12289063 95.60429688 36.04265625 96.1953125 34.9296875 C96.78441406 33.80820313 97.37351562 32.68671875 97.98046875 31.53125 C99.7499889 28.16956479 101.5270707 24.83089639 103.41601562 21.53442383 C104.92372475 18.81355772 105.91311345 16.15611631 106.84179688 13.19018555 C108.70568248 8.03705655 110.66438583 3.86162281 115.35546875 0.78125 C125.60167749 -2.16655238 136.67055539 -1.3302193 147.21459961 -0.96893311 C150.40492275 -0.88529015 153.59139129 -0.90227337 156.78250504 -0.92087078 C159.86506645 -0.92982811 162.94525588 -0.88790277 166.02721405 -0.82947731 C167.49579327 -0.80531389 168.96464139 -0.79385285 170.43341827 -0.79566002 C181.69065779 -0.75395826 181.69065779 -0.75395826 185.69226074 2.93612671 C187.45069662 5.60645773 188.65693296 7.65757417 189.35546875 10.78125 C188.24501194 14.51003988 186.34911296 17.71668746 184.40625 21.078125 C183.81328125 22.10615234 183.2203125 23.13417969 182.609375 24.19335938 C181.96871094 25.29486328 181.32804687 26.39636719 180.66796875 27.53125 C179.9934302 28.69592915 179.31895206 29.86064329 178.64453125 31.02539062 C173.51421459 39.86716436 168.26365184 48.63439324 162.98144531 57.38623047 C157.9046227 65.81639332 152.96381698 74.31952126 148.0859375 82.86621094 C144.74648283 88.70145004 141.33738269 94.48176202 137.8203125 100.2109375 C136.69714557 102.05396941 135.57495432 103.89759276 134.45285034 105.74127197 C133.72781864 106.92389689 132.99672948 108.10283184 132.25930786 109.277771 C131.23485455 110.9103367 130.23217083 112.55650169 129.23046875 114.203125 C128.36035156 115.60449707 128.36035156 115.60449707 127.47265625 117.03417969 C126.05455354 120.52117525 126.31582043 122.18290846 127.35546875 125.78125 C128.3688091 128.0212111 129.47524106 130.22016485 130.64453125 132.3828125 C130.97943573 133.00803802 131.31434021 133.63326355 131.65939331 134.2774353 C132.75845871 136.32477327 133.8694123 138.3653985 134.98046875 140.40625 C135.75668617 141.84721118 136.53206532 143.28862421 137.30664062 144.73046875 C138.88913272 147.67331003 140.47617397 150.61362074 142.06738281 153.55175781 C144.7440126 158.49540049 147.39796637 163.45098907 150.05029297 168.40771484 C151.26173067 170.67166483 152.47431084 172.93500383 153.68798828 175.19775391 C158.43404303 184.04647877 163.14893777 192.91145891 167.85546875 201.78125 C173.03763701 211.54727588 178.23318688 221.30584249 183.45730591 231.04949951 C184.40268047 232.81519576 185.34480017 234.58263345 186.28686523 236.35009766 C188.8478849 241.14890489 191.4185155 245.93264583 194.13671875 250.64453125 C194.72827759 251.68758423 194.72827759 251.68758423 195.33178711 252.75170898 C196.31523749 254.47611817 197.32045102 256.18807063 198.328125 257.8984375 C199.35546875 260.78125 199.35546875 260.78125 198.7890625 263.7890625 C197.16592291 267.17686884 195.79428266 269.89750526 193.35546875 272.78125 C190.39127274 273.37010918 188.24145696 273.54620564 185.28222656 273.46240234 C184.4720961 273.4632785 183.66196564 273.46415466 182.82728577 273.46505737 C180.15340243 273.46088193 177.48203788 273.41423569 174.80859375 273.3671875 C172.95344412 273.35599512 171.09827674 273.34745513 169.24310303 273.34146118 C164.36329067 273.31856603 159.48455205 273.25963711 154.60516357 273.1932373 C149.62494432 273.13182943 144.64455133 273.10444938 139.6640625 273.07421875 C129.89405981 273.00989436 120.12485361 272.90750668 110.35546875 272.78125 C102.64196338 258.37964149 95.37708316 243.78363626 88.23046875 229.09375 C87.1682378 226.91588438 86.10573924 224.73814926 85.04296875 222.56054688 C82.47739402 217.30227572 79.91508039 212.04242622 77.35546875 206.78125 C74.83390954 209.20632257 73.28200422 211.4808466 71.640625 214.5859375 C71.12540283 215.55128418 70.61018066 216.51663086 70.0793457 217.51123047 C69.53109131 218.54908691 68.98283691 219.58694336 68.41796875 220.65625 C63.69053788 229.50000645 58.86275038 238.26810795 53.84204102 246.94873047 C48.90574761 255.49946466 44.13704837 264.14339246 39.35546875 272.78125 C30.59344188 273.01327235 21.83247645 273.19078429 13.06804466 273.29937172 C8.9978705 273.35149913 4.92980188 273.42214632 0.86083984 273.53564453 C-3.06861278 273.64456135 -6.99604554 273.70413969 -10.92689133 273.73002243 C-12.42386059 273.7484568 -13.92072281 273.78446191 -15.41682816 273.83855057 C-26.99126461 274.2402361 -26.99126461 274.2402361 -31.00360107 270.69940186 C-33.58206015 266.82303692 -34.82856686 264.1602874 -34.20605469 259.49560547 C-33.43310059 258.15199951 -33.43310059 258.15199951 -32.64453125 256.78125 C-31.96052246 255.4511792 -31.96052246 255.4511792 -31.26269531 254.09423828 C-30.46943848 252.73661377 -30.46943848 252.73661377 -29.66015625 251.3515625 C-28.76296875 249.80662109 -28.76296875 249.80662109 -27.84765625 248.23046875 C-27.203125 247.13347656 -26.55859375 246.03648437 -25.89453125 244.90625 C-25.21694503 243.74378256 -24.53986998 242.58101703 -23.86328125 241.41796875 C-22.12908386 238.4397533 -20.38860562 235.46526375 -18.64624023 232.49182129 C-17.11633775 229.87927882 -15.59141619 227.26383809 -14.06640625 224.6484375 C-12.35009152 221.7052078 -10.63340428 218.76220302 -8.91479492 215.8203125 C-4.65631124 208.52857633 -0.42494067 201.22152422 3.79296875 193.90625 C4.41341064 192.83036621 5.03385254 191.75448242 5.6730957 190.64599609 C8.85805511 185.12067095 12.03859376 179.59283619 15.21484375 174.0625 C15.84986816 172.9585791 16.48489258 171.8546582 17.13916016 170.71728516 C18.39636792 168.53079481 19.65129699 166.34299248 20.90380859 164.15380859 C23.85773372 159.0125479 26.86387873 153.92464705 30.03515625 148.9140625 C30.60661377 148.00188965 31.17807129 147.0897168 31.7668457 146.14990234 C32.8361542 144.45399772 33.92228803 142.76853878 35.02807617 141.09619141 C35.49834229 140.34772949 35.9686084 139.59926758 36.453125 138.828125 C36.87086182 138.18713867 37.28859863 137.54615234 37.71899414 136.88574219 C39.11441644 132.27180272 35.84893006 127.53853817 33.73828125 123.5 C33.22040039 122.50548828 32.70251953 121.51097656 32.16894531 120.48632812 C31.61174805 119.42865234 31.05455078 118.37097656 30.48046875 117.28125 C29.89749023 116.16685547 29.31451172 115.05246094 28.71386719 113.90429688 C24.6187745 106.10433149 20.41086434 98.37129613 16.15869141 90.65625 C11.18144119 81.56974329 6.47328733 72.34876324 1.75286865 63.12728882 C-2.80950255 54.2189259 -7.44080793 45.36179727 -12.26953125 36.59375 C-19.19253491 23.98636315 -19.19253491 23.98636315 -21.95703125 18.65625 C-22.51003906 17.60179687 -23.06304688 16.54734375 -23.6328125 15.4609375 C-24.7757178 12.43378291 -24.5696944 11.76069413 -23.64453125 8.78125 C-23.46767288 8.08390747 -23.29081451 7.38656494 -23.1085968 6.66809082 C-19.32251562 -2.5105317 -8.30709484 -0.19549488 0 0 Z " fill="#79CE25" transform="translate(1894.64453125,1394.21875)"/>
<path d="M0 0 C0.84755859 -0.01224609 1.69511719 -0.02449219 2.56835938 -0.03710938 C3.83969727 -0.04000977 3.83969727 -0.04000977 5.13671875 -0.04296875 C6.26726685 -0.04913208 6.26726685 -0.04913208 7.4206543 -0.05541992 C11.78957046 0.31157641 16.02980201 1.27054938 20.3125 2.1875 C20.49814418 12.10583484 20.64014909 22.02375418 20.72699738 31.94347477 C20.76868867 36.55010046 20.82520176 41.15553467 20.91601562 45.76147461 C21.00316457 50.20954972 21.0508197 54.65648161 21.07151794 59.10534477 C21.08626066 60.79951409 21.11505228 62.49362319 21.15834045 64.18730354 C21.48172792 77.36849138 21.48172792 77.36849138 18.6293335 81.80606079 C15.28422491 84.90178797 12.60064152 86.47263457 8.015625 86.765625 C6.52932941 86.68652105 5.04441975 86.5762295 3.5625 86.4375 C1.9743855 86.36828869 0.38577249 86.3097045 -1.203125 86.26171875 C-1.96947266 86.23770996 -2.73582031 86.21370117 -3.52539062 86.18896484 C-12.91239335 86.18260509 -20.85880519 89.92786309 -27.6875 96.1875 C-42.76210834 112.67535287 -43.86911083 138.45643318 -43.79760742 159.65380859 C-43.79814941 162.10053508 -43.79873634 164.54726157 -43.79936218 166.99398804 C-43.79793402 168.27200665 -43.79650585 169.55002525 -43.79503441 170.8667717 C-43.79293872 174.89363065 -43.80061603 178.92033975 -43.81282043 182.94717407 C-43.81484236 183.63032318 -43.81686429 184.3134723 -43.81894749 185.0173229 C-43.82311459 186.41249477 -43.82731733 187.80766653 -43.83155501 189.20283818 C-43.85959984 198.55862236 -43.8797559 207.91419749 -43.86254883 217.27001953 C-43.85098523 223.60984265 -43.86058253 229.94924493 -43.89460641 236.28899252 C-43.91172445 239.63509453 -43.9148254 242.97979393 -43.898489 246.32600021 C-43.88164749 250.0505228 -43.90173367 253.77314772 -43.93041992 257.49755859 C-43.91662796 258.5979245 -43.902836 259.69829041 -43.8886261 260.83200073 C-43.95994211 265.60030887 -44.02624705 269.18377624 -47.27462769 272.86860657 C-50.68753047 275.64268325 -53.65689713 275.95300116 -58.05053711 275.97973633 C-58.76193344 275.99185654 -59.47332977 276.00397675 -60.20628357 276.01646423 C-62.54333908 276.04781021 -64.87766664 276.03539434 -67.21484375 276.01953125 C-68.84860447 276.02611911 -70.48235936 276.03433887 -72.11610413 276.04411316 C-75.53501292 276.05744718 -78.95298244 276.0486585 -82.37182617 276.0246582 C-86.74161362 275.9960882 -91.10870185 276.02612191 -95.47824764 276.07329273 C-98.85086017 276.10256183 -102.22283344 276.09873171 -105.59552193 276.08527184 C-107.20579699 276.08312602 -108.8161238 276.09155693 -110.42628288 276.11100197 C-112.68416558 276.1336561 -114.93741463 276.11113934 -117.19506836 276.07739258 C-118.4760289 276.07483963 -119.75698944 276.07228668 -121.07676697 276.06965637 C-126.08533169 274.8459887 -128.78599186 272.42498946 -131.6875 268.1875 C-132.67087943 264.64462678 -132.63478031 261.25813876 -132.5763855 257.59814453 C-132.58730543 256.54354601 -132.59822537 255.48894749 -132.60947621 254.40239143 C-132.63736158 250.8743319 -132.61529653 247.34838709 -132.59326172 243.8203125 C-132.60274846 241.28878547 -132.6152129 238.7572681 -132.63043213 236.22576904 C-132.65903725 230.06721697 -132.65485206 223.90944589 -132.63454364 217.75088358 C-132.61872068 212.74486296 -132.61659701 207.73900965 -132.62421036 202.73297119 C-132.62528299 202.01989748 -132.62635562 201.30682377 -132.62746076 200.57214177 C-132.62969888 199.12344657 -132.63196838 197.67475143 -132.63426889 196.22605634 C-132.65421934 182.64854102 -132.63129569 169.07135678 -132.59366633 155.49389577 C-132.56239265 143.84928037 -132.56782512 132.20515346 -132.60009766 120.56054688 C-132.63757699 107.03092598 -132.65229683 93.50159511 -132.63081181 79.97192955 C-132.62858202 78.52862935 -132.62638142 77.0853291 -132.62421036 75.64202881 C-132.62313043 74.93193826 -132.6220505 74.22184771 -132.62093785 73.49023926 C-132.61489938 68.49148911 -132.62508349 63.49292326 -132.64156723 58.49420166 C-132.66327537 51.76335647 -132.64777265 45.03357539 -132.60730743 38.30277252 C-132.59804859 35.83205956 -132.60071529 33.36126898 -132.61614609 30.89058685 C-132.63526671 27.51829353 -132.61130225 24.14895994 -132.5763855 20.77685547 C-132.59200055 19.79815554 -132.6076156 18.8194556 -132.62370384 17.8110981 C-132.52095365 12.69821538 -131.93891828 9.84169034 -128.33584023 6.08122063 C-125.01126889 3.08698154 -122.58359312 2.3043847 -118.03710938 2.28173828 C-116.1197699 2.24864059 -116.1197699 2.24864059 -114.16369629 2.21487427 C-112.78619683 2.22740528 -111.40871295 2.24176261 -110.03125 2.2578125 C-108.60069981 2.25308949 -107.17015512 2.24628952 -105.73962402 2.23751831 C-102.7501851 2.22723279 -99.76221632 2.24207942 -96.77294922 2.27490234 C-92.95563499 2.31479217 -89.14176535 2.29180881 -85.32457733 2.2498951 C-82.37309168 2.22450438 -79.42241247 2.23269265 -76.47090149 2.25078964 C-75.06439294 2.25543327 -73.6578093 2.24982007 -72.25138855 2.23343277 C-59.94695021 2.1215002 -59.94695021 2.1215002 -55.32788086 6.42944336 C-53.03929637 9.28371116 -51.8095785 11.50948957 -51.78515625 15.24609375 C-51.76259766 16.12587891 -51.74003906 17.00566406 -51.71679688 17.91210938 C-51.73323242 19.25499023 -51.73323242 19.25499023 -51.75 20.625 C-51.73388672 21.54732422 -51.71777344 22.46964844 -51.70117188 23.41992188 C-51.66608286 25.6773154 -51.66225814 27.93011107 -51.6875 30.1875 C-51.19121094 29.47464844 -50.69492188 28.76179687 -50.18359375 28.02734375 C-40.24352798 14.01317132 -29.35997502 5.09498453 -12.47265625 0.59765625 C-8.31567771 -0.01452152 -4.19624528 0.00311988 0 0 Z " fill="#79CE25" transform="translate(2891.6875,972.8125)"/>
<path d="M0 0 C0.18564418 9.91833484 0.32764909 19.83625418 0.41449738 29.75597477 C0.45618867 34.36260046 0.51270176 38.96803467 0.60351562 43.57397461 C0.69066457 48.02204972 0.7383197 52.46898161 0.75901794 56.91784477 C0.77376066 58.61201409 0.80255228 60.30612319 0.84584045 61.99980354 C1.16881115 75.16400407 1.16881115 75.16400407 -1.66778564 79.61979675 C-5.18564987 82.89570034 -7.90676785 84.30590298 -12.734375 84.54296875 C-14.40803749 84.45319312 -16.08032722 84.33378263 -17.75 84.1875 C-29.03925671 83.71457028 -38.13878329 85.34217139 -46.97265625 92.9140625 C-63.40502001 109.82135007 -64.18625768 137.28383364 -64.11010742 159.39624023 C-64.11064931 161.80244447 -64.11123623 164.20864869 -64.11186218 166.61485291 C-64.11043402 167.86877272 -64.10900585 169.12269253 -64.10753441 170.41460991 C-64.10543611 174.37012067 -64.11312627 178.32553518 -64.12532043 182.28102112 C-64.12734236 182.95251975 -64.12936429 183.62401838 -64.13144749 184.31586546 C-64.13561439 185.68701119 -64.13981713 187.05815682 -64.14405501 188.42930233 C-64.17208657 197.61690766 -64.19224644 206.80429948 -64.17504883 215.99194336 C-64.1634848 222.2215402 -64.17308186 228.45070879 -64.20710641 234.68022877 C-64.2242193 237.96694441 -64.22732871 241.25271381 -64.210989 244.53945732 C-64.19414633 248.19682734 -64.21423393 251.8522652 -64.24291992 255.50952148 C-64.22912796 256.58961487 -64.215336 257.66970825 -64.2011261 258.78253174 C-64.27313218 263.51050983 -64.36884384 267.01866048 -67.58613586 270.66963196 C-71.00545101 273.46017031 -73.96982859 273.75996499 -78.37890625 273.77636719 C-79.44841019 273.79213806 -79.44841019 273.79213806 -80.53952026 273.80822754 C-82.88142198 273.83449892 -85.22057382 273.81720685 -87.5625 273.796875 C-89.19865436 273.80092042 -90.8348052 273.80674659 -92.47094727 273.81427002 C-95.89406794 273.82309892 -99.31624694 273.81031525 -102.73925781 273.78222656 C-107.11789401 273.74803913 -111.49432372 273.76773161 -115.87287903 273.80366135 C-119.24972025 273.8253874 -122.62604194 273.81842231 -126.00289917 273.80289459 C-127.61677311 273.79890426 -129.23069488 273.80376126 -130.84451294 273.81777191 C-133.10463576 273.83308947 -135.36123243 273.80969104 -137.62109375 273.77636719 C-138.9042749 273.77159363 -140.18745605 273.76682007 -141.50952148 273.76190186 C-145.99801224 272.78215383 -148.54435143 270.79987851 -151 267 C-151.8644709 263.47905227 -151.81072656 260.05994377 -151.76190186 256.44824219 C-151.7712618 255.38562542 -151.78062174 254.32300865 -151.79026532 253.22819138 C-151.81419937 249.66724485 -151.79523997 246.10783297 -151.77636719 242.546875 C-151.78449718 239.99417217 -151.79518013 237.44147638 -151.80822754 234.88879395 C-151.83276084 228.67503069 -151.82915083 222.4618358 -151.81175169 216.24806499 C-151.79819614 211.197689 -151.79636589 206.14743486 -151.80289459 201.0970459 C-151.80381399 200.37799725 -151.80473339 199.65894861 -151.80568065 198.91811061 C-151.80759902 197.45733417 -151.8095443 195.99655776 -151.8115162 194.53578138 C-151.8286217 180.84102004 -151.80895957 167.14649975 -151.776714 153.45177794 C-151.74990762 141.70340833 -151.75456388 129.95539444 -151.78222656 118.20703125 C-151.81434252 104.56098703 -151.82697378 90.91515404 -151.80855298 77.2690773 C-151.8066417 75.81370293 -151.80475548 74.35832853 -151.80289459 72.9029541 C-151.80196894 72.18689963 -151.80104329 71.47084516 -151.80008958 70.73309207 C-151.79491104 65.68931933 -151.80364894 60.64568068 -151.81777191 55.60192871 C-151.8363663 48.81210401 -151.82311074 42.02305487 -151.78840637 35.23326111 C-151.78046426 32.73954893 -151.78276601 30.24578026 -151.79598236 27.75209045 C-151.81234663 24.3512123 -151.7918569 20.95249758 -151.76190186 17.55175781 C-151.77528619 16.56168102 -151.78867052 15.57160423 -151.80246043 14.55152512 C-151.72191009 9.84648784 -151.47359528 6.88415106 -148.1487608 3.38855457 C-144.56185606 0.66763728 -142.9112967 0.23869353 -138.46313477 0.20776367 C-137.18483292 0.18562302 -135.90653107 0.16348236 -134.5894928 0.14067078 C-133.20678726 0.14809331 -131.82409004 0.15723481 -130.44140625 0.16796875 C-129.00942674 0.16137883 -127.57745389 0.15315813 -126.14549255 0.14338684 C-123.15024223 0.13006082 -120.15606455 0.13882533 -117.16088867 0.1628418 C-113.33576894 0.19141023 -109.51373313 0.16137934 -105.6888895 0.11420727 C-102.73315921 0.08491291 -99.77815721 0.08877529 -96.82234001 0.10222816 C-95.41302014 0.10437137 -94.00364083 0.09596684 -92.59445381 0.07649803 C-80.25383981 -0.06515495 -80.25383981 -0.06515495 -75.63818359 4.23974609 C-73.3516735 7.09464186 -72.1220716 9.32304459 -72.09765625 13.05859375 C-72.07509766 13.93837891 -72.05253906 14.81816406 -72.02929688 15.72460938 C-72.04573242 17.06749023 -72.04573242 17.06749023 -72.0625 18.4375 C-72.04638672 19.35982422 -72.03027344 20.28214844 -72.01367188 21.23242188 C-71.97858286 23.4898154 -71.97475814 25.74261107 -72 28 C-71.5153125 27.29875 -71.030625 26.5975 -70.53125 25.875 C-61.42966943 12.99276288 -50.30032824 2.07694161 -34.3828125 -1.60546875 C-22.79120389 -2.95737691 -11.33478384 -2.71515828 0 0 Z " fill="#79CE25" transform="translate(1738,1394)"/>
<path d="M0 0 C0.71139633 -0.01212021 1.42279266 -0.02424042 2.15574646 -0.03672791 C4.49280197 -0.06807389 6.82712953 -0.05565801 9.16430664 -0.03979492 C10.79806737 -0.04638279 12.43182225 -0.05460254 14.06556702 -0.06437683 C17.48447581 -0.07771085 20.90244533 -0.06892218 24.32128906 -0.04492188 C28.69107651 -0.01635187 33.05816474 -0.04638558 37.42771053 -0.0935564 C40.80032306 -0.1228255 44.17229633 -0.11899538 47.54498482 -0.10553551 C49.15525988 -0.10338969 50.76558669 -0.1118206 52.37574577 -0.13126564 C54.63362847 -0.15391977 56.88687752 -0.13140301 59.14453125 -0.09765625 C60.42549179 -0.0951033 61.70645233 -0.09255035 63.02622986 -0.08992004 C68.03479458 1.13374763 70.73545475 3.55474687 73.63696289 7.79223633 C74.62034232 11.33510955 74.5842432 14.72159757 74.52584839 18.3815918 C74.53676832 19.43619032 74.54768826 20.49078884 74.5589391 21.57734489 C74.58682447 25.10540443 74.56475942 28.63134923 74.54272461 32.15942383 C74.55221135 34.69095086 74.56467579 37.22246823 74.57989502 39.75396729 C74.60850014 45.91251936 74.60431495 52.07029043 74.58400653 58.22885275 C74.56818357 63.23487337 74.5660599 68.24072668 74.57367325 73.24676514 C74.57474588 73.95983885 74.57581851 74.67291256 74.57692365 75.40759456 C74.57916177 76.85628975 74.58143127 78.3049849 74.58373179 79.75367999 C74.60368223 93.33119531 74.58075858 106.90837954 74.54312922 120.48584056 C74.51185554 132.13045596 74.51728801 143.77458287 74.54956055 155.41918945 C74.58703988 168.94881035 74.60175972 182.47814122 74.5802747 196.00780678 C74.57804491 197.45110698 74.57584431 198.89440723 74.57367325 200.33770752 C74.57259332 201.04779807 74.57151339 201.75788862 74.57040074 202.48949707 C74.56436227 207.48824721 74.57454638 212.48681307 74.59103012 217.48553467 C74.61273826 224.21637986 74.59723554 230.94616093 74.55677032 237.67696381 C74.54751148 240.14767677 74.55017818 242.61846735 74.56560898 245.08914948 C74.5847296 248.4614428 74.56076515 251.83077639 74.52584839 255.20288086 C74.54146344 256.18158079 74.55707849 257.16028072 74.57316673 258.16863823 C74.47066051 263.26938107 73.89025645 266.13901261 70.30428505 269.8985157 C66.77491628 273.09586115 64.06472177 273.6767299 59.25219727 273.69799805 C58.55040848 273.71026428 57.84861969 273.72253052 57.12556458 273.73516846 C54.82601531 273.7657589 52.53029432 273.74567142 50.23071289 273.72192383 C48.62080163 273.72664534 47.01089525 273.73344409 45.40100098 273.74221802 C42.03499609 273.75251011 38.67029591 273.73763334 35.30444336 273.70483398 C31.00298977 273.66494635 26.70459321 273.68792578 22.40325165 273.72984123 C19.08120952 273.75521248 15.75988491 273.74705195 12.43782043 273.72894669 C10.85268282 273.72429783 9.26747873 273.72993477 7.68241882 273.74630356 C5.46045041 273.76421743 3.24333752 273.7368285 1.02172852 273.69799805 C-0.86854065 273.68964432 -0.86854065 273.68964432 -2.79699707 273.68112183 C-7.77032908 272.44144906 -10.47894556 270.00581928 -13.36303711 265.79223633 C-14.3457932 262.2344125 -14.30609067 258.83235702 -14.24519348 255.15818787 C-14.25540785 254.09880023 -14.26562222 253.03941259 -14.27614611 251.94792229 C-14.30169388 248.40369094 -14.27728541 244.86159634 -14.25292969 241.31738281 C-14.26077896 238.77438304 -14.2716212 236.23139099 -14.28523254 233.68841553 C-14.31000833 227.50211234 -14.30208743 221.31659911 -14.27831904 215.13031464 C-14.25976143 210.10235945 -14.2552748 205.07457194 -14.26080894 200.04658699 C-14.26159285 199.3304492 -14.26237676 198.6143114 -14.26318442 197.87647246 C-14.26485023 196.42157454 -14.26655402 194.96667667 -14.26829537 193.51177884 C-14.28307588 179.87658161 -14.25575704 166.24172066 -14.21347692 152.60659701 C-14.17810953 140.90996906 -14.17652597 129.21374257 -14.20019531 117.51708984 C-14.22766518 103.928526 -14.2359056 90.34018925 -14.21226043 76.75161034 C-14.20977898 75.30243022 -14.20731551 73.85325008 -14.20487022 72.4040699 C-14.20364958 71.69107453 -14.20242894 70.97807916 -14.20117131 70.24347786 C-14.19384185 65.22174249 -14.20005728 60.20012829 -14.21137428 55.17840385 C-14.22611535 48.4189137 -14.20871968 41.66022901 -14.16973686 34.90080261 C-14.16019574 32.41838428 -14.1608855 29.93590272 -14.17247772 27.45349312 C-14.18660542 24.06797291 -14.16388059 20.68465156 -14.13166809 17.29930115 C-14.1443703 16.31379743 -14.15707251 15.3282937 -14.17015964 14.31292623 C-14.08649086 9.63215331 -13.82924565 6.66991244 -10.53273201 3.18358421 C-6.71283111 0.30169424 -4.74706412 0.02888574 0 0 Z " fill="#79CE25" transform="translate(1773.363037109375,1394.207763671875)"/>
<path d="M0 0 C1.65714442 -0.00217832 3.31428727 -0.00658321 4.97142029 -0.0131073 C8.43578238 -0.01889936 11.89887359 -0.00002066 15.36303711 0.03686523 C19.79437145 0.08238218 24.22324762 0.06974158 28.65463352 0.03905773 C32.07354001 0.02122832 35.4918745 0.03252015 38.91074944 0.05269814 C40.54414682 0.05919518 42.17760232 0.05712754 43.81097603 0.04619408 C58.09495456 -0.01991681 58.09495456 -0.01991681 62.11791992 2.91137695 C66.10697629 8.40464727 64.97423347 16.97617308 64.91796875 23.45703125 C64.92201417 25.09318561 64.92784034 26.72933645 64.93536377 28.36547852 C64.94419267 31.78859919 64.931409 35.21077819 64.90332031 38.63378906 C64.86913288 43.01242526 64.88882536 47.38885497 64.9247551 51.76741028 C64.94648115 55.1442515 64.93951606 58.52057319 64.92398834 61.89743042 C64.91999801 63.51130436 64.92485501 65.12522613 64.93886566 66.73904419 C65.03457596 80.86120181 65.03457596 80.86120181 62.11791992 84.87768555 C56.58897666 88.90629516 47.90642364 87.77028251 41.375 87.7265625 C39.71881913 87.73315017 38.06264401 87.74136983 36.40647888 87.75114441 C32.9404962 87.7644792 29.47544 87.75568821 26.00952148 87.73168945 C21.57921328 87.70311928 17.15156739 87.73315326 12.72149754 87.78032398 C9.30256437 87.80959066 5.8842619 87.80576363 2.46525383 87.79230309 C0.83265037 87.79015702 -0.80000411 87.79859046 -2.43249321 87.81803322 C-16.71445323 87.95935213 -16.71445323 87.95935213 -21.37573242 84.3503418 C-25.79592804 78.5673443 -24.88119619 70.63751414 -24.80859375 63.70703125 C-24.81331543 62.11954013 -24.82011431 60.53205397 -24.82888794 58.94458008 C-24.83917929 55.62564671 -24.82430591 52.30803666 -24.79150391 48.98925781 C-24.75161604 44.74832331 -24.77459592 40.51048945 -24.81651115 36.26966858 C-24.84188459 32.99394636 -24.83372094 29.71895169 -24.81561661 26.44320679 C-24.81096834 24.88039781 -24.81660261 23.3175214 -24.83297348 21.75479126 C-24.94458395 8.10789402 -24.94458395 8.10789402 -21.37573242 3.4387207 C-15.49247313 -1.11641164 -7.06490102 -0.08414217 0 0 Z " fill="#79CE25" transform="translate(1782.87890625,1302.10546875)"/>
</svg>
