<?xml version="1.0" encoding="utf-8"?>
<svg xmlns="http://www.w3.org/2000/svg" width="100" height="100" viewBox="0 0 100 100" fill="none">
<path d="M88.5 53.9C88.5 47.3 86.8 42.2 85.4 39.2C81.6 30.3 74.4 23.2 65.5 19.3C65.5 19.3 65.4 19.2 65.3 19.2C48.8 11.8 31 16.7 20.8 29.5C15 36.1 11.5 45 11.5 54.7C11.5 60 12.6 65.1 14.6 69.7C14.7 69.9 14.7 70.1 14.8 70.3C16.6 74.7 19 77.8 20.8 79.6C23.6 82.8 26.9 85.6 30.6 87.7C37.9 92.3 46 94 54.8 92.7C60.5 92 65.8 90.1 70.5 87.1C76.9 83.3 81.7 77.8 84.8 70.9C87.2 65.7 88.5 60 88.5 53.9Z" fill="#00A997" stroke="#00A997" stroke-width="1.5" stroke-miterlimit="10"/>
<path d="M36.2998 45.8C47.3998 52 58.5998 58.2 69.7998 64.4C74.4998 67 77.6998 70.9 74.7998 76.1C70.7998 83.1 65.4998 83.3 59.8998 80C53.5998 76.3 48.8998 73.4 42.6998 69.7C39.2998 67.7 35.8998 65.6 32.3998 63.6C27.2998 60.6 22.5998 57.4 26.0998 50.9C27.6998 47.9 32.6998 43.8 36.2998 45.8Z" fill="#A85B27" stroke="#A85B27" stroke-miterlimit="10"/>
<path d="M38.6999 79.1C49.3999 73.5 59.9999 68 70.5999 62.4C75.8999 59.6 78.3999 52.4 73.5999 47.7C73.5999 47.7 71.6999 44 65.2999 45.4C60.2999 47.9 55.0999 50.5 49.9999 53C45.9999 55 41.9999 57 37.9999 59C34.3999 60.8 29.0999 62.1 26.4999 65.3C24.2999 68.1 24.4999 72.2 25.8999 75.3C29.1999 82.3 36.5999 80.9 38.6999 79.1Z" fill="#A85B27" stroke="#A85B27" stroke-miterlimit="10"/>
<path d="M41.7998 72.7C51.9998 66.5 62.7998 60.9 73.6998 56C63.4998 62.2 52.7998 67.8 41.7998 72.7Z" fill="#FFF4DE"/>
<path d="M39.2 65.7C46 61.3 53.1 57.6 60.5 54.5C53.8 58.9 46.7 62.7 39.2 65.7Z" fill="#FFF4DE"/>
<path fill-rule="evenodd" clip-rule="evenodd" d="M29.9 65.8C28.6 66.6 27.7 67.9 27.4 69.5C27.1 71.1 27.3 72.9 28.1 74.6C29.8 77.8 33.5 79.4 36.2 77.8C37 77.3 37.6 76.5 38 75.7C38 75.6 38 75.6 38.1 75.5C38.8 73.6 38.5 71.3 37.4 69.3C36.2 67 34.1 65.3 32 65.3C31.3 65.2 30.6 65.4 29.9 65.8Z" stroke="#FFF4DE" stroke-width="1.1069" stroke-miterlimit="10"/>
<path fill-rule="evenodd" clip-rule="evenodd" d="M64.7998 70.6C64.1998 71.3 63.5998 72.3 63.1998 73.3C62.7998 74.4 62.5998 75.7 62.6998 76.7C62.7998 77.6 63.0998 78.5 63.6998 79C65.8998 81.2 69.5998 79.7 71.8998 76.9C73.3998 75.1 73.9998 72.5 73.4998 70.5C73.2998 69.7 72.8998 69 72.1998 68.5C71.7998 68.2 71.3998 68.1 70.8998 68C70.6998 68 70.3998 67.9 70.0998 67.9C68.3998 68.1 66.1998 69 64.7998 70.6Z" stroke="#FFF4DE" stroke-width="1.1069" stroke-miterlimit="10"/>
<path d="M46.2 7.40005C46.2 7.00005 46.7 6.70005 47 7.00005C65.7 25.5 68.7 33.3 68.3 43.5C68 52.8 59.2 61.2 49.7 61.2C40.2 61.2 32.4 53.8 32.6 45.2C33.2 25.8 47.8 23.1 46.2 7.40005Z" fill="#FEDC5D" stroke="#FEDC5D" stroke-width="1.5" stroke-miterlimit="10"/>
<path d="M48.1001 27.3C59.3001 38.3 61.0001 42.8001 60.8001 48.7001C60.6001 54.0001 55.6001 58.8 50.2001 58.8C44.8001 58.8 40.3001 54.6 40.5001 49.6C40.8001 38.2 49.5001 36.9 48.1001 27.3Z" fill="#FF931E" stroke="#FF931E" stroke-width="1.5" stroke-miterlimit="10"/>
</svg>