<svg width="100" height="100" viewBox="0 0 100 100" fill="none" xmlns="http://www.w3.org/2000/svg">
<path d="M88.5 49.5C88.5 42.9 86.8 37.8 85.4 34.8C81.6 25.9 74.4 18.8 65.5 14.9C65.5 14.9 65.4 14.8 65.3 14.8C48.7 7.39997 30.9 12.2 20.8 25C15 31.8 11.5 40.6 11.6 50.3C11.6 55.6 12.7 60.7 14.7 65.3C14.8 65.5 14.8 65.7 14.9 65.9C16.7 70.3 19.1 73.4 20.9 75.2C23.7 78.4 27 81.2 30.7 83.3C38 87.9 46.1 89.6 54.9 88.3C60.6 87.6 65.9 85.7 70.6 82.7C77 78.9 81.8 73.4 84.9 66.5C87.2 61.4 88.5 55.6 88.5 49.5Z" fill="#00A997" stroke="#00A997" stroke-width="1.5" stroke-miterlimit="10"/>
<path d="M77.8999 4.09999C77.9999 3.79999 77.6999 3.59999 77.4999 3.79999L36.3999 45L26.3999 55.1H44.6999L22.0999 95.9C21.9999 96.2 22.2999 96.4 22.4999 96.2L63.4999 55.1L73.4999 45H55.2999L77.8999 4.09999Z" fill="#FEDC5D" stroke="#FEDC5D" stroke-width="1.5" stroke-miterlimit="10"/>
<path d="M54.2001 33.4L35.8 51.8H46.1H53.5L45.3 66.6L63.7001 48.2H54.1H46.1L54.2001 33.4C54.2001 33.3 54.2001 33.4 54.2001 33.4Z" fill="#FF931E"/>
<path d="M54.2001 33.4L35.8 51.8H46.1H53.5L45.3 66.6L63.7001 48.2H54.1H46.1L54.2001 33.4ZM54.2001 33.4C54.2001 33.4 54.2001 33.3 54.2001 33.4Z" stroke="#FF931E" stroke-width="1.1069" stroke-miterlimit="10"/>
</svg>
