<svg width="100" height="100" viewBox="0 0 100 100" fill="none" xmlns="http://www.w3.org/2000/svg">
<path d="M88.5 53.7C88.5 47.1 86.8 42 85.4 39C81.6 30.1 74.4 23 65.5 19.1C65.5 19.1 65.4 19 65.3 19C48.8 11.6 31 16.5 20.8 29.3C15 36 11.5 44.9 11.5 54.6C11.5 59.9 12.6 65 14.6 69.6C14.7 69.8 14.7 70 14.8 70.2C16.6 74.6 19 77.7 20.8 79.5C23.6 82.7 26.9 85.5 30.6 87.6C37.9 92.2 46 93.9 54.8 92.6C60.5 91.9 65.8 90 70.5 87C76.9 83.2 81.7 77.7 84.8 70.8C87.2 65.6 88.5 59.8 88.5 53.7Z" fill="#00A997" stroke="#00A997" stroke-width="1.5" stroke-miterlimit="10"/>
<path d="M44.8999 7.70001C44.7999 7.20001 45.4999 6.80001 45.8999 7.20001C69.9999 31.1 73.7999 41.2 73.3999 54.4C72.9999 66.4 61.6999 77.3 49.3999 77.3C37.0999 77.3 26.9999 67.8 27.3999 56.7C28.1999 31.4 46.9999 27.9 44.8999 7.70001Z" fill="#FEDC5D" stroke="#FEDC5D" stroke-width="1.5" stroke-miterlimit="10"/>
<path d="M47.3998 33.3C61.7998 47.4 63.9998 53.2001 63.7998 60.9001C63.4998 67.8001 57.0998 74 49.9998 74C42.9998 74 37.1998 68.6001 37.3998 62.2001C37.9998 47.4001 49.2998 45.7 47.3998 33.3Z" fill="#FF931E" stroke="#FF931E" stroke-width="1.5" stroke-miterlimit="10"/>
</svg>
